PathFileType	4	(X/Y/Z)	Patient4_TMGait_0pt7_02_left_45.trc.trc
DataRate	CameraRate	NumFrames	NumMarkers	Units	OrigDataRate	OrigDataStartFrame	OrigNumFrames
88.050314465409	88.050314465409	4	33	mm	88.050314465409	18	       141
Frame#	Time	Sacral			L.Shoulder			Chest			R.Shoulder			Neck			R.ASIS			L.ASIS			R.Thigh.Superior			R.Thigh.Lateral			R.Thigh.Inferior			R.Patella			L.Thigh.Superior			L.Thigh.Lateral			L.Thigh.Inferior			L.Patella			L.Shank.Superior			L.Shank.Lateral			L.Shank.Inferior			R.Shank.Superior			R.Shank.Lateral			R.Shank.Inferior			R.Heel			R.Midfoot.Superior			R.Midfoot.Lateral			R.Toe			L.Heel			L.Midfoot.Lateral			L.Midfoot.Superior			L.Toe			L.Elbow			L.Wrist			R.Elbow			R.Wrist			
		X1	Y1	Z1	X2	Y2	Z2	X3	Y3	Z3	X4	Y4	Z4	X5	Y5	Z5	X6	Y6	Z6	X7	Y7	Z7	X8	Y8	Z8	X9	Y9	Z9	X10	Y10	Z10	X11	Y11	Z11	X12	Y12	Z12	X13	Y13	Z13	X14	Y14	Z14	X15	Y15	Z15	X16	Y16	Z16	X17	Y17	Z17	X18	Y18	Z18	X19	Y19	Z19	X20	Y20	Z20	X21	Y21	Z21	X22	Y22	Z22	X23	Y23	Z23	X24	Y24	Z24	X25	Y25	Z25	X26	Y26	Z26	X27	Y27	Z27	X28	Y28	Z28	X29	Y29	Z29	X30	Y30	Z30	X31	Y31	Z31	X32	Y32	Z32	X33	Y33	Z33	

18	51.703071428571	725.621095728713	1009.131164171588	510.405086014020	902.190025800930	1415.212339498562	293.786984223264	1024.041486521763	1343.528887151238	441.045988348222	974.779772307037	1431.401278838070	621.317690972217	929.741400427427	1481.487695537456	445.564464948727	953.065540686133	936.382626819252	615.419716732773	922.891644313607	944.106198632683	339.154752080052	948.091657546696	723.219907702575	592.537081195540	841.087763567504	632.486191869931	654.483032187935	901.102131816161	564.695257394220	576.052415872309	882.998363675585	481.457890292470	580.156896005084	1015.429054450523	800.162606030904	380.422988985348	1003.853422286696	669.401866962945	291.543630976486	1116.460094419063	630.351022399481	355.326081674255	1156.663638642949	558.261875242814	348.600890828133	1132.475019418859	476.825679866989	340.627784053282	1052.154551506169	357.718686941723	282.326465830766	1120.880792476651	246.912098908169	339.592734150547	845.987604695383	398.402894571404	586.263945118306	765.995124722560	301.575738449456	647.862614694150	798.650187711236	203.711430172902	582.640284507055	653.967523824221	43.449309102660	549.393557371205	824.830647471057	96.246565138772	589.124885149358	735.449229548698	36.791710701225	625.790084236092	944.062965411966	42.041302413911	619.145652081533	1014.697440236867	75.361116124844	367.836582976219	1092.592477544732	77.456476826837	291.639195506926	1167.372558133931	148.929399642696	318.728196506186	1299.336635487071	111.580790955958	297.517715268949	752.358449077435	1088.761987601001	220.217283706790	691.814525980961	838.008288935935	246.642416721272	1075.746455769994	1108.594393316941	747.199323093551	1308.248676621044	1114.976728605239	644.157769825242	
19	51.714428571429	727.801053653594	1007.471684512086	508.116368868393	903.356043370349	1413.955275408157	292.278639910016	1024.909906380821	1342.550409443215	439.832038218402	974.802625123480	1430.283514676298	619.823345738412	930.248657818851	1480.168606975964	444.257999271239	954.419539597378	935.162688295558	614.539497586539	926.130466304569	941.997066408474	337.924342108343	947.495812809625	721.565562703075	592.200305526028	839.089072863069	631.770178576455	653.705456970981	898.626280389751	563.380629187762	575.595919861379	879.658366526704	480.002623865731	579.684270773300	1016.184492541272	794.149236524426	378.879635819656	1000.759709266428	662.822583562209	290.940838375098	1112.478757858409	621.902020322774	354.941423306301	1151.334827221010	551.104549243268	349.135581062780	1128.921710866678	470.911562945873	340.485782408835	1053.029195262257	348.928513610348	282.031833297888	1125.937994704243	240.660509287613	339.269148982081	841.713685296422	397.340535790478	585.771531910827	760.556735619529	301.452260745550	647.458912103900	792.088584033559	203.143575312547	582.395671347795	646.005114289960	43.466999677276	549.381641024177	816.794335136535	96.107311602728	588.976561902638	727.442066406774	36.759196871893	625.752233745441	936.058314442267	41.753728303452	619.267520431275	1025.993795599961	65.675092143433	367.240579537223	1104.127832438556	69.990760332581	291.195531136958	1176.605640852322	143.779149551274	318.489631810538	1309.961481637015	110.439303051627	297.696651386176	746.084600655904	1092.155031908723	218.198790884832	680.419208928134	842.909598681129	247.204625320440	1084.299753112137	1110.768665429969	743.358908146944	1312.992488928117	1135.594031890473	636.643940143141	
20	51.725785714286	730.192892699909	1005.580627160753	505.534434780888	904.534589133157	1412.605132624681	290.627269789018	1025.805214431798	1341.582300515409	438.514286467223	974.644976131144	1429.068378815897	618.206669981739	930.619724189227	1478.729935076139	442.787727039538	956.029731233163	933.740956706667	613.446382948844	929.726545870792	939.794069545239	336.602871652928	947.326254949607	719.761218924730	591.589251112298	837.639541904404	630.854322648190	652.706338509338	896.698340143387	561.904738632946	574.855795878314	876.820157660666	478.314608077226	578.932256610599	1017.247590296869	787.769708924270	377.340918844905	997.807814050076	656.130361463555	290.312979246357	1108.492786100410	613.229443958666	354.770211936512	1145.777352471506	543.525215064441	349.737419962238	1124.842801965665	464.593049276316	340.242687491498	1052.518963497231	340.284197865048	282.188202050853	1129.170918865668	234.337529402302	339.175801718348	837.889885477985	396.036143703283	585.069993216202	755.477965386994	301.207777623649	646.912103520844	785.684078873734	202.426927153763	582.047755547382	638.034951560180	43.450381321577	549.379540006739	808.752391488674	95.968410209997	588.802156264259	719.443940549520	36.703745433351	625.722481211771	928.067263324285	41.464048836445	619.399190820236	1034.462341549425	57.151236339780	367.446970457133	1112.465978484569	62.977746550063	291.239932896550	1183.357295224859	138.224806965447	318.476221512288	1317.573488774495	107.612402535080	297.569210111133	740.375641049470	1095.453076746818	216.230964333708	670.072735504587	847.610916658449	247.611077385671	1092.589856789530	1113.109730151655	739.439590662804	1316.204544952165	1155.430586381574	629.457734315271	
21	51.737142857143	732.721118742330	1003.501781817441	502.698260720570	905.739241773813	1411.170579619814	288.819621281368	1026.738555408399	1340.634714927572	437.084132243106	974.330270334506	1427.782751118101	616.463125293892	930.882012041650	1477.194583370937	441.125298662470	957.869400042167	932.131532565007	612.122745219478	933.565311367316	937.548608807590	335.196195288189	947.616898411481	717.822387642529	590.680649205051	836.789928148277	629.726597537437	651.467276583255	895.385840631281	560.255596648775	573.818144696451	874.556061610413	476.366048678848	577.873745953920	1018.622247508162	781.293519212276	375.807875922524	995.140010265190	649.631576558869	289.630085685613	1104.709901847132	604.745711018861	354.703044583711	1140.242977826370	535.887264103771	350.285540500809	1120.510413447209	458.143600999825	339.855753357204	1050.843185190886	332.045145709073	282.661082943110	1130.677291883848	228.110975687013	339.261338437885	834.560230071621	394.476194449774	584.138341279076	750.799282106962	300.848806757698	646.210867978434	779.457196081732	201.573351523791	581.590790056128	630.053142429336	43.440007324135	549.398971455169	800.728753797262	95.842186154644	588.613368475092	711.458973794502	36.643009987069	625.707352827258	920.100385962125	41.172068026786	619.538416005678	1039.951567052771	49.990288190072	368.328124774777	1117.537268815306	56.544188106586	291.691809999323	1187.645760625219	132.349660446824	318.673470778835	1322.226939208273	103.026542440545	297.213474882092	735.371154998288	1098.526454003556	214.331163339052	660.768350103059	852.021011701096	247.828181676354	1100.547525871622	1115.596995430485	735.495519808164	1318.010012886986	1174.333132703755	622.620903528577	
